<svg xmlns="http://www.w3.org/2000/svg" width="62" height="89" viewBox="0 0 62 89" fill="none"><path d="M-1.93818e-06 44.4991C-1.20688e-06 61.2898 8.97055 72.0264 13.4893 76.4124C26.6277 89.2112 45.9209 92.3188 62 85.4191L62 3.57895C56.5507 1.2406 50.5871 2.13863e-06 44.4893 2.40613e-06C19.9172 3.4841e-06 -3.00862e-06 19.9217 -1.93818e-06 44.4991ZM44.4893 53.9689C39.2814 53.9689 35.0254 49.752 35.0254 44.499C35.0254 39.2688 39.2602 35.0331 44.4893 35.0331C49.6871 35.0331 53.9571 39.2409 53.9571 44.499C53.9571 49.7491 49.6942 53.9689 44.4893 53.9689ZM53.9571 23.5757L53.9571 29.7637C51.1354 27.9455 47.8795 26.9845 44.4893 26.9845C34.818 26.9845 26.9786 34.8256 26.9786 44.499C26.9786 54.1734 34.8171 62.0136 44.4893 62.0136C47.8729 62.0136 51.1298 61.0562 53.9571 59.2344L53.9571 65.4262C51.0219 66.7583 47.7936 67.4611 44.4893 67.4611C31.8107 67.4611 21.5361 57.173 21.5361 44.499C21.5361 31.8182 31.8112 21.5409 44.4893 21.5409C47.7972 21.5409 51.0249 22.2451 53.9571 23.5757ZM53.9571 9.2958L53.9571 14.9689C34.0784 8.53644 13.4893 23.4547 13.4893 44.4991C13.4893 61.6206 27.3714 75.5058 44.4893 75.5058C47.6837 75.5058 50.9178 75.0127 53.9571 74.0291L53.9571 79.7023C50.8659 80.5412 47.6117 80.9495 44.4893 80.9495C24.3692 80.9495 8.04684 64.6235 8.04684 44.4991C8.04684 24.3665 24.3612 8.04863 44.4893 8.04863C47.601 8.04863 50.8553 8.45398 53.9571 9.2958Z" fill="#0044FF"></path></svg>